<svg width="247" height="238" viewBox="0 0 247 238" fill="none" xmlns="http://www.w3.org/2000/svg">
<path d="M94.7679 19.335C93.3622 20.8577 92.3742 22.7181 91.8999 24.7355C90.8625 23.3344 89.3482 22.3614 87.6428 21.9999C85.9373 21.6385 84.1585 21.9135 82.6419 22.7732C82.3617 19.4261 80.8854 16.2919 78.4834 13.9442C76.0813 11.5964 72.9142 10.1923 69.5615 9.98862C66.2089 9.78498 62.8951 10.7955 60.2265 12.8352C57.558 14.8749 55.7133 17.8075 55.0299 21.096C53.3889 19.4802 51.1964 18.5466 48.8943 18.4833C46.5922 18.42 44.3517 19.2318 42.6244 20.755" stroke="#263238" stroke-miterlimit="10"/>
<path d="M132.89 4.58133C131.941 4.43502 130.982 4.36213 130.022 4.3633C125.808 4.36189 121.72 5.80333 118.439 8.44784C115.158 11.0923 112.881 14.7805 111.987 18.8989C110.093 17.0308 107.63 15.8465 104.988 15.5327C102.346 15.2189 99.6748 15.7935 97.3955 17.1658" stroke="#263238" stroke-miterlimit="10"/>
<path d="M143.255 9.96508C141.953 8.62743 140.454 7.49629 138.811 6.61072" stroke="#263238" stroke-miterlimit="10"/>
<path d="M136.614 27.9277H170.716C170.284 27.2043 169.704 26.5806 169.014 26.0973C168.324 25.6141 167.54 25.2824 166.712 25.124C165.885 24.9656 165.033 24.984 164.213 25.1782C163.394 25.3724 162.624 25.7378 161.956 26.2505C161.504 24.9437 160.771 23.7522 159.808 22.7603C158.844 21.7684 157.675 21.0005 156.382 20.5108C155.089 20.0211 153.704 19.8217 152.325 19.9267C150.947 20.0317 149.608 20.4385 148.404 21.1184C148.097 17.7756 146.879 14.5811 144.882 11.8827" stroke="#263238" stroke-miterlimit="10"/>
<path d="M41.1988 22.337C40.1122 23.8681 39.5263 25.698 39.5216 27.5754C39.5216 27.6872 39.5216 27.7991 39.5216 27.9109H129.866" stroke="#263238" stroke-miterlimit="10"/>
<path d="M162.157 33.9878C161.077 33.0671 159.777 32.4423 158.383 32.1746C156.989 31.907 155.55 32.0056 154.205 32.4608C152.861 32.916 151.658 33.7123 150.714 34.7717C149.769 35.8312 149.116 37.1175 148.818 38.5051C148.144 37.8362 147.304 37.3595 146.384 37.1243C145.464 36.8891 144.498 36.904 143.586 37.1674C142.674 37.4308 141.849 37.9331 141.196 38.6224C140.543 39.3116 140.086 40.1628 139.873 41.0879C139.408 40.4682 138.734 40.0382 137.977 39.8778C137.219 39.7174 136.429 39.8375 135.753 40.2158C135.633 38.7212 134.978 37.3199 133.908 36.2697C132.838 35.2195 131.425 34.5911 129.928 34.4999C128.432 34.4087 126.953 34.861 125.763 35.7736C124.573 36.6861 123.753 37.9976 123.453 39.4666C122.884 38.9072 122.161 38.5285 121.377 38.3779C120.593 38.2274 119.782 38.3118 119.046 38.6206C118.31 38.9293 117.681 39.4486 117.239 40.1133C116.796 40.778 116.56 41.5586 116.56 42.357C116.56 42.4073 116.56 42.452 116.56 42.5023H174.943C174.748 42.1811 174.487 41.9046 174.178 41.6909C173.869 41.4771 173.519 41.3309 173.15 41.2618C172.78 41.1927 172.401 41.2023 172.035 41.2898C171.67 41.3774 171.327 41.541 171.029 41.77C170.829 41.1888 170.502 40.6589 170.074 40.2178C169.646 39.7767 169.125 39.4352 168.55 39.2175C167.975 38.9999 167.359 38.9114 166.746 38.9583C166.133 39.0052 165.538 39.1864 165.003 39.489C164.95 38.8767 164.826 38.2725 164.634 37.6888" stroke="#263238" stroke-miterlimit="10"/>
<path d="M8.82361 102.747C8.82361 102.747 85.4987 31.5895 94.2815 31.0751C102.969 30.5664 165.349 95.0148 165.349 95.0148C165.349 95.0148 208.296 57.692 212.897 57.692C217.498 57.692 223.654 65.8431 223.654 65.8431" stroke="#263238" stroke-linecap="round" stroke-linejoin="round"/>
<path d="M146.431 83.2298L142.568 79.54" stroke="#263238" stroke-linecap="round" stroke-linejoin="round"/>
<path d="M102.539 46.6394L115.755 58.6871" stroke="#263238" stroke-linecap="round" stroke-linejoin="round"/>
<path d="M98.3683 42.8378L100.828 45.074" stroke="#263238" stroke-linecap="round" stroke-linejoin="round"/>
<path d="M138.335 75.4924L112.177 50.5024" stroke="#263238" stroke-linecap="round" stroke-linejoin="round"/>
<path d="M231.844 198.441C231.335 194.399 224.263 200.465 224.263 200.465C225.219 198.049 225.732 195.481 225.778 192.884C225.778 188.842 220.746 193.89 220.746 193.89C220.746 193.89 224.285 187.321 223.782 180.249C223.279 173.177 215.693 181.261 215.693 181.261C215.693 181.261 218.728 170.639 219.231 167.614C219.735 164.59 205.082 171.153 205.082 171.153C205.082 171.153 206.094 166.603 206.597 162.057C206.859 159.732 204.36 160.699 201.833 162.203C201.274 160.179 199.782 160.039 198.121 160.671C198.228 160.168 198.345 159.62 198.474 159.033C199.033 156.31 195.153 159.379 191.927 162.281C191.537 158.745 189.937 155.453 187.399 152.961C184.955 150.518 182.322 153.241 180.131 157.065L176.502 158.183C176.458 157.479 176.385 156.752 176.279 156.003C175.625 151.43 171.806 156.361 169.184 160.419L166.389 161.28C165.942 158.418 164.846 154.242 162.151 150.949C157.606 145.392 146.99 161.057 146.99 161.057C146.99 161.057 140.421 150.434 137.894 156.025C135.367 161.616 138.906 173.211 138.906 173.211C138.906 173.211 137.391 169.163 135.372 168.179C133.354 167.195 127.792 171.712 127.792 171.712C127.792 171.712 130.822 164.64 127.792 162.113C125.047 159.827 121.485 167.866 120.826 169.431C121.29 168.246 123.062 163.114 121.726 156.047C120.211 147.963 114.145 158.574 114.145 158.574C114.145 158.574 115.157 148.467 109.6 146.952C104.043 145.436 112.127 146.952 106.564 157.059C101.001 167.167 103.031 149.987 94.9412 150.994C86.8516 152 88.881 182.329 88.881 182.329L56.9978 164.092C56.9978 164.092 55.4827 161.057 50.3506 160.14C45.2184 159.223 48.4106 167.134 48.4106 167.134C48.4106 167.134 41.3329 160.565 38.3028 160.565C37.5145 160.565 35.0938 164.07 31.9407 169.258C31.7115 168.727 31.4767 168.185 31.2307 167.637C29.3131 163.427 27.6919 172.842 27.0154 177.655L26.4563 178.622C26.0482 176.246 24.8574 172.165 21.6261 172.165C17.7126 172.165 19.7867 185.65 20.4408 189.395V189.44C19.9377 187.31 18.4897 182.172 16.0914 181.764C13.0613 181.261 15.5826 192.884 15.5826 192.884C15.5826 192.884 13.5644 191.369 12.0494 191.369C10.9312 191.369 12.4798 198.419 13.4191 202.382C10.2324 208.308 8.06885 212.417 8.06885 212.417L28.195 201.477H133.964L128.848 208.554H229.803C229.803 208.554 232.347 202.494 231.844 198.441Z" fill="black"/>
<path d="M109.689 208.437H113.362L115.598 127.373L120.306 113.196L115.347 122.537L116.079 113.414L124.018 97.2567L116.37 107.32L115.755 83.1293L114.715 98.017L110.964 95.7808L114.251 100.756L113.357 118.367L110.388 113.676L112.943 122.023L109.689 208.437Z" fill="#263238"/>
<path d="M123.705 213.81C122.397 208.622 120.255 202.181 117.27 199.777C111.97 195.506 103.349 202.22 98.7093 199.168C94.0691 196.115 104.009 166.222 88.0872 164.394C72.1651 162.566 66.2055 193.069 58.9098 196.115C51.6141 199.162 48.9641 188.188 39.0184 187.579C30.3251 187.02 13.5197 208.42 9.43298 213.81H123.705Z" fill="#0369B3"/>
<path opacity="0.46" d="M123.705 213.81C122.397 208.622 120.255 202.181 117.27 199.777C111.97 195.506 103.349 202.22 98.7093 199.168C94.0691 196.115 104.009 166.222 88.0872 164.394C72.1651 162.566 66.2055 193.069 58.9098 196.115C51.6141 199.162 48.9641 188.188 39.0184 187.579C30.3251 187.02 13.5197 208.42 9.43298 213.81H123.705Z" fill="black"/>
<path d="M88.3611 208.437H92.0341L94.2704 127.373L98.9832 113.168L94.0244 122.509L94.7567 113.386L102.695 97.2288L95.0698 107.314L94.4101 83.1293L93.3926 98.017L89.6413 95.7808L92.9286 100.756L92.0341 118.367L89.0655 113.676L91.6204 122.023L88.3611 208.437Z" fill="#C7CACB"/>
<path d="M38.9346 208.437H42.6076L44.8438 127.373L49.5511 113.196L44.5867 122.537L45.3246 113.414L53.2745 97.2511L45.6265 107.314L44.9724 83.1293L43.9326 98.017L40.1813 95.7808L43.4685 100.756L42.5741 118.367L39.5999 113.676L42.1603 122.023L38.9346 208.437Z" fill="#A8ADAF"/>
<path d="M144.312 208.437H147.985L150.221 146.13L154.951 135.267L149.986 142.446L150.719 135.435L158.657 122.968L151.009 130.739L150.35 112.156L149.299 123.6L145.553 121.889L148.84 125.707L147.94 139.242L144.971 135.636L147.526 142.049L144.312 208.437Z" fill="#C7CACB"/>
<path d="M101.41 208.437H105.083L107.319 146.13L112.043 135.267L107.084 142.446L107.816 135.435L115.755 122.968L108.107 130.739L107.447 112.156L106.408 123.6L102.656 121.889L105.949 125.707L105.049 139.242L102.08 135.636L104.635 142.049L101.41 208.437Z" fill="#C7CACB"/>
<path d="M129.502 208.437H133.17L135.406 146.13L140.136 135.267L135.171 142.446L135.909 135.435L143.842 122.968L136.194 130.739L135.535 112.156L134.5 123.6L130.749 121.889L134.036 125.707L133.142 139.242L130.168 135.636L132.728 142.049L129.502 208.437Z" fill="#C7CACB"/>
<path d="M210.834 208.437H214.507L216.744 127.373L221.451 113.196L216.492 122.537L217.224 113.414L225.163 97.2567L217.515 107.32L216.855 83.1349L215.827 98.0171L212.075 95.7808L215.363 100.756L214.468 118.367L211.5 113.676L214.055 122.023L210.834 208.437Z" fill="#263238"/>
<path d="M188.612 208.437H192.279L194.515 127.373L199.228 113.196L194.264 122.537L195.002 113.414L202.968 97.2511L195.32 107.314L194.661 83.1293L193.626 98.017L189.875 95.7808L193.162 100.756L192.268 118.367L189.294 113.676L191.854 122.023L188.612 208.437Z" fill="#8A9094"/>
<path d="M150.512 208.437H154.179L156.416 127.373L161.123 113.196L156.158 122.537L156.896 113.414L164.852 97.2511L157.204 107.314L156.566 83.1293L155.532 98.017L151.781 95.7808L155.068 100.756L154.174 118.367L151.199 113.676L153.76 122.023L150.512 208.437Z" fill="#263238"/>
<path d="M205.836 213.81C204.718 208.622 202.851 202.181 200.274 199.777C195.684 195.506 188.22 202.22 184.206 199.168C180.192 196.115 188.796 166.222 175.027 164.394C161.257 162.566 156.091 193.069 149.779 196.115C143.468 199.162 141.17 188.188 132.566 187.579C125.041 187.02 110.5 208.42 106.961 213.81H205.836Z" fill="#0369B3"/>
<path opacity="0.25" d="M205.836 213.81C204.718 208.622 202.851 202.181 200.274 199.777C195.684 195.506 188.22 202.22 184.206 199.168C180.192 196.115 188.796 166.222 175.027 164.394C161.257 162.566 156.091 193.069 149.779 196.115C143.468 199.162 141.17 188.188 132.566 187.579C125.041 187.02 110.5 208.42 106.961 213.81H205.836Z" fill="black"/>
<path d="M142.858 85.7568C142.858 85.7568 134.914 85.7568 132.6 98.6655C130.285 111.574 136.239 114.878 128.954 121.509C121.67 128.139 120.68 132.768 124.32 135.748C127.959 138.728 129.95 142.037 125.315 147.002C120.68 151.966 120.015 159.251 136.569 163.885C153.123 168.52 165.701 157.266 166.367 149.652C167.032 142.037 161.397 137.067 161.067 130.778C160.737 124.489 172.326 118.529 171.001 109.925C169.676 101.321 157.757 104.625 154.448 98.0058C151.138 91.3866 150.803 85.7568 142.858 85.7568Z" fill="#0369B3"/>
<path opacity="0.46" d="M142.858 85.7568C142.858 85.7568 134.914 85.7568 132.6 98.6655C130.285 111.574 136.239 114.878 128.954 121.509C121.67 128.139 120.68 132.768 124.32 135.748C127.959 138.728 129.95 142.037 125.315 147.002C120.68 151.966 120.015 159.251 136.569 163.885C153.123 168.52 165.701 157.266 166.367 149.652C167.032 142.037 161.397 137.067 161.067 130.778C160.737 124.489 172.326 118.529 171.001 109.925C169.676 101.321 157.757 104.625 154.448 98.0058C151.138 91.3866 150.803 85.7568 142.858 85.7568Z" fill="black"/>
<path d="M136.999 211.227H139.901L144.004 130.454L147.728 119.273L143.814 126.658L144.373 119.446L150.646 106.666L144.602 114.644L144.077 95.5237L143.261 107.264L140.292 105.508L142.892 109.422L142.182 123.343L139.834 119.636L141.858 126.233L136.999 211.227Z" fill="#92989B"/>
<path d="M93.1466 213.81C93.9964 209.024 95.3828 203.076 97.334 200.862C100.789 196.92 106.396 203.098 109.421 200.303C112.445 197.507 105.966 169.901 116.325 168.213C126.685 166.524 130.57 194.673 135.333 197.491C140.096 200.308 141.807 190.167 148.281 189.608C153.944 189.116 164.88 208.845 167.541 213.815L93.1466 213.81Z" fill="#0369B3"/>
<path opacity="0.46" d="M93.1466 213.81C93.9964 209.024 95.3828 203.076 97.334 200.862C100.789 196.92 106.396 203.098 109.421 200.303C112.445 197.507 105.966 169.901 116.325 168.213C126.685 166.524 130.57 194.673 135.333 197.491C140.096 200.308 141.807 190.167 148.281 189.608C153.944 189.116 164.88 208.845 167.541 213.815L93.1466 213.81Z" fill="black"/>
<path d="M132.616 213.81C131.85 210.511 130.592 206.408 128.848 204.865C125.74 202.148 120.691 206.419 117.974 204.479C115.257 202.539 121.077 183.503 111.758 182.34C102.438 181.177 98.9384 200.594 94.6672 202.533C90.396 204.473 88.8418 197.502 83.0164 197.099C77.9234 196.758 68.0783 210.371 65.6855 213.799L132.616 213.81Z" fill="#0369B3"/>
<path d="M26.0259 166.653C26.0259 166.653 18.4003 167.458 7.57689 157.026C-3.24651 146.594 18.0145 109.668 26.4396 101.64C34.8646 93.6117 52.1563 144.984 45.7048 154.616C39.2532 164.249 32.4551 166.256 26.0259 166.653Z" fill="#0369B3"/>
<path opacity="0.46" d="M26.0259 166.653C26.0259 166.653 18.4003 167.458 7.57689 157.026C-3.24651 146.594 18.0145 109.668 26.4396 101.64C34.8646 93.6117 52.1563 144.984 45.7048 154.616C39.2532 164.249 32.4551 166.256 26.0259 166.653Z" fill="black"/>
<path d="M22.8113 208.795L24.0189 155.019L18.7973 149.4L24.4158 152.609V142.977L17.1927 134.552L24.0189 139.768L23.2138 132.947L25.2208 136.156L26.4228 116.891L27.2279 146.186L40.472 138.963L27.2279 150.2V155.416V210.399" fill="#263238"/>
<path d="M211.533 121.755C211.533 121.755 203.908 122.554 193.084 112.122C182.261 101.69 203.527 64.7642 211.913 56.7361C220.299 48.708 237.63 100.08 231.179 109.713C224.727 119.345 217.951 121.352 211.533 121.755Z" fill="#0369B3"/>
<path d="M205.384 206.497L209.526 110.115L204.31 104.497L209.929 107.706V98.0729L202.7 89.6479L209.526 94.8639L208.721 88.0434L210.728 91.2524L211.936 71.9872L212.735 101.288L225.979 94.0589L212.735 105.296V110.518L209.8 208.102" fill="#A8ADAF"/>
<path d="M43.1443 212.418C43.0518 211.971 42.87 211.547 42.6096 211.172C42.3492 210.798 42.0158 210.48 41.6292 210.237C40.1309 209.421 40.1309 210.237 38.3587 209.678C37.1847 209.315 37.4195 206.67 37.3244 205.765C37.0281 202.997 35.4963 200.605 32.6731 199.889C31.2687 199.52 29.7933 199.514 28.386 199.872C26.9786 200.229 25.6854 200.94 24.6282 201.935C21.2235 205.206 21.6316 208.085 19.4513 208.202C17.271 208.32 16.0466 205.614 12.2338 207.246C9.89136 208.253 8.6782 210.69 8.09119 212.423L43.1443 212.418Z" fill="#0369B3"/>
<path opacity="0.5" d="M43.1443 212.418C43.0518 211.971 42.87 211.547 42.6096 211.172C42.3492 210.798 42.0158 210.48 41.6292 210.237C40.1309 209.421 40.1309 210.237 38.3587 209.678C37.1847 209.315 37.4195 206.67 37.3244 205.765C37.0281 202.997 35.4963 200.605 32.6731 199.889C31.2687 199.52 29.7933 199.514 28.386 199.872C26.9786 200.229 25.6854 200.94 24.6282 201.935C21.2235 205.206 21.6316 208.085 19.4513 208.202C17.271 208.32 16.0466 205.614 12.2338 207.246C9.89136 208.253 8.6782 210.69 8.09119 212.423L43.1443 212.418Z" fill="white"/>
<path d="M11.6133 212.222C11.6133 212.222 12.2171 209.734 14.252 209.51C16.287 209.287 17.7182 212.602 20.7371 209.812C23.7561 207.023 25.5618 199.934 30.2412 200.163C34.9205 200.392 34.8422 206.044 34.3111 208.381C33.78 210.718 36.8772 210.617 38.2245 210.338C39.5719 210.058 41.1652 211.545 41.1652 212.451" stroke="#263238" stroke-width="0.903884" stroke-linecap="round" stroke-linejoin="round"/>
<path d="M15.8343 212.373L14.1794 210.869" stroke="#263238" stroke-width="0.903884" stroke-linecap="round" stroke-linejoin="round"/>
<path d="M25.9364 212.451L30.3865 203.406" stroke="#263238" stroke-width="0.903884" stroke-linecap="round" stroke-linejoin="round"/>
<path d="M28.1223 204.082L28.6534 207.023L32.1979 205.06" stroke="#263238" stroke-width="0.903884" stroke-linecap="round" stroke-linejoin="round"/>
<path d="M25.26 207.095L27.0714 210.416L30.6102 209.281" stroke="#263238" stroke-width="0.903884" stroke-linecap="round" stroke-linejoin="round"/>
<path d="M118.042 211.489C117.939 210.995 117.737 210.527 117.449 210.113C117.161 209.699 116.792 209.348 116.364 209.08C114.687 208.174 114.687 209.08 112.747 208.476C111.45 208.079 111.707 205.155 111.601 204.154C111.277 201.091 109.583 198.446 106.458 197.653C104.9 197.236 103.261 197.222 101.696 197.613C100.131 198.005 98.6916 198.788 97.5129 199.889C93.7448 203.506 94.1977 206.67 91.7881 206.821C89.3786 206.972 88.0201 203.959 83.7992 205.765C81.2107 206.883 79.8857 209.572 79.2205 211.489H118.042Z" fill="#0369B3"/>
<path opacity="0.5" d="M118.042 211.489C117.939 210.995 117.737 210.527 117.449 210.113C117.161 209.699 116.792 209.348 116.364 209.08C114.687 208.174 114.687 209.08 112.747 208.476C111.45 208.079 111.707 205.155 111.601 204.154C111.277 201.091 109.583 198.446 106.458 197.653C104.9 197.236 103.261 197.222 101.696 197.613C100.131 198.005 98.6916 198.788 97.5129 199.889C93.7448 203.506 94.1977 206.67 91.7881 206.821C89.3786 206.972 88.0201 203.959 83.7992 205.765C81.2107 206.883 79.8857 209.572 79.2205 211.489H118.042Z" fill="white"/>
<path d="M87.8301 211.434L85.9963 209.768" stroke="#263238" stroke-linecap="round" stroke-linejoin="round"/>
<path d="M99.0056 211.517L103.925 201.51" stroke="#263238" stroke-linecap="round" stroke-linejoin="round"/>
<path d="M101.426 202.259L102.008 205.513L105.927 203.344" stroke="#263238" stroke-linecap="round" stroke-linejoin="round"/>
<path d="M98.2565 205.597L100.258 209.27L104.177 208.018" stroke="#263238" stroke-linecap="round" stroke-linejoin="round"/>
<path d="M55.7623 47.8638C55.7623 47.8638 44.3183 47.8638 40.9807 66.4581C37.6432 85.0524 46.2247 89.8212 35.7368 99.3532C25.2488 108.885 23.8176 115.566 29.0672 119.854C34.3167 124.142 37.1679 128.911 30.4928 136.067C23.8176 143.223 22.8672 153.711 46.7055 160.386C70.5438 167.061 88.635 150.848 89.6134 139.885C90.5917 128.922 82.4574 121.766 81.9822 112.709C81.507 103.652 98.1949 95.0708 96.283 82.6764C94.371 70.2821 77.2134 75.0453 72.4502 65.5133C67.687 55.9813 67.2062 47.8638 55.7623 47.8638Z" fill="#0369B3"/>
<path opacity="0.18" d="M55.7623 47.8638C55.7623 47.8638 44.3183 47.8638 40.9807 66.4581C37.6432 85.0524 46.2247 89.8212 35.7368 99.3532C25.2488 108.885 23.8176 115.566 29.0672 119.854C34.3167 124.142 37.1679 128.911 30.4928 136.067C23.8176 143.223 22.8672 153.711 46.7055 160.386C70.5438 167.061 88.635 150.848 89.6134 139.885C90.5917 128.922 82.4574 121.766 81.9822 112.709C81.507 103.652 98.1949 95.0708 96.283 82.6764C94.371 70.2821 77.2134 75.0453 72.4502 65.5133C67.687 55.9813 67.2062 47.8638 55.7623 47.8638Z" fill="black"/>
<path d="M47.2925 228.552H51.4631L57.3723 112.234L62.7393 96.0939L57.0872 106.716L57.9258 96.3287L66.9602 77.93L58.2501 89.4243L57.5009 61.885L56.3213 78.8413L52.0501 76.3032L55.7958 81.9664L54.7727 102.014L51.4183 96.6753L54.331 106.179L47.2925 228.552Z" fill="#263238"/>
<path d="M164.192 58.8157C164.192 58.8157 152.759 59.2127 150.07 77.9132C147.381 96.6138 156.119 101.075 145.972 110.97C135.825 120.866 134.623 127.586 140.013 131.689C145.402 135.793 148.427 140.461 142.003 147.84C135.579 155.22 134.998 165.73 159.049 171.573C183.099 177.415 200.648 160.587 201.219 149.596C201.789 138.605 193.442 131.74 192.648 122.705C191.854 113.671 208.235 104.519 205.898 92.2196C203.561 79.9203 186.577 85.2593 181.478 75.895C176.38 66.5308 175.625 58.4188 164.192 58.8157Z" fill="#0369B3"/>
<g opacity="0.5">
<path opacity="0.5" d="M164.192 58.8157C164.192 58.8157 152.759 59.2127 150.07 77.9132C147.381 96.6138 156.119 101.075 145.972 110.97C135.825 120.866 134.623 127.586 140.013 131.689C145.402 135.793 148.427 140.461 142.003 147.84C135.579 155.22 134.998 165.73 159.049 171.573C183.099 177.415 200.648 160.587 201.219 149.596C201.789 138.605 193.442 131.74 192.648 122.705C191.854 113.671 208.235 104.519 205.898 92.2196C203.561 79.9203 186.577 85.2593 181.478 75.895C176.38 66.5308 175.625 58.4188 164.192 58.8157Z" fill="white"/>
</g>
<path d="M160.838 217.527L165.014 217.382L168.044 123.091L172.841 106.755L167.563 117.579L168.038 107.169L176.424 88.4684L168.122 100.253L166.411 72.7532L165.819 89.7374L161.464 87.3558L165.405 92.8849L165.081 112.961L161.514 107.739L164.751 117.131L160.838 217.527Z" fill="#263238"/>
<path d="M234.611 213.81C233.616 209.505 231.978 204.155 229.697 202.159C225.65 198.614 219.075 204.188 215.519 201.656C211.964 199.123 219.567 174.301 207.413 172.78C195.259 171.259 190.697 196.59 185.123 199.123C179.549 201.656 177.526 192.537 169.928 192.029C163.286 191.587 150.45 209.359 147.325 213.832L234.611 213.81Z" fill="#0369B3"/>
<path d="M97.3787 214.917C97.7589 211.965 97.9657 206.531 94.9915 203.568C90.7706 199.347 84.442 206.201 82.8599 206.201C81.2778 206.201 80.7466 201.985 76.0002 198.29C71.2538 194.595 65.4508 199.347 62.2865 198.29C59.1222 197.233 64.9252 180.887 55.9579 180.361C46.9906 179.836 43.8263 202.511 37.5089 202.511C31.1916 202.511 30.1238 198.29 23.7952 201.985C18.8363 204.876 16.1473 211.97 15.2136 214.917H97.3787Z" fill="#0369B3"/>
<path opacity="0.25" d="M97.3787 214.917C97.7589 211.965 97.9657 206.531 94.9915 203.568C90.7706 199.347 84.442 206.201 82.8599 206.201C81.2778 206.201 80.7466 201.985 76.0002 198.29C71.2538 194.595 65.4508 199.347 62.2865 198.29C59.1222 197.233 64.9252 180.887 55.9579 180.361C46.9906 179.836 43.8263 202.511 37.5089 202.511C31.1916 202.511 30.1238 198.29 23.7952 201.985C18.8363 204.876 16.1473 211.97 15.2136 214.917H97.3787Z" fill="black"/>
<path d="M32.237 214.207L26.5737 205.01" stroke="#263238" stroke-linecap="round" stroke-linejoin="round"/>
<path d="M52.5198 213.497L55.3486 186.846" stroke="#263238" stroke-linecap="round" stroke-linejoin="round"/>
<path d="M68.7939 213.972L71.6228 203.595" stroke="#263238" stroke-linecap="round" stroke-linejoin="round"/>
<path d="M88.8363 214.441L91.6707 207.129" stroke="#263238" stroke-linecap="round" stroke-linejoin="round"/>
<path d="M32.7066 205.245L29.8778 210.198L23.2753 207.604" stroke="#263238" stroke-linecap="round" stroke-linejoin="round"/>
<path d="M51.1053 188.97L54.4038 194.869L58.8875 189.44" stroke="#263238" stroke-linecap="round" stroke-linejoin="round"/>
<path d="M49.2157 198.407L53.4646 203.596L57.7078 200.292" stroke="#263238" stroke-linecap="round" stroke-linejoin="round"/>
<path d="M70.4432 208.074L76.1009 204.775" stroke="#263238" stroke-linecap="round" stroke-linejoin="round"/>
<path d="M69.9736 209.963L67.1392 202.651" stroke="#263238" stroke-linecap="round" stroke-linejoin="round"/>
<path d="M90.2563 210.668L88.8363 205.949" stroke="#263238" stroke-linecap="round" stroke-linejoin="round"/>
<path d="M89.7811 211.612L93.7896 209.963" stroke="#263238" stroke-linecap="round" stroke-linejoin="round"/>
<path d="M117.952 83.0622C116.14 79.5405 113.802 76.3151 111.02 73.4967C109.032 71.4845 106.616 69.9479 103.95 69.002C101.285 68.0561 98.4401 67.7254 95.6288 68.0347C84.2911 69.3205 81.1883 83.7722 77.9793 92.5606C70.309 113.553 60.7938 144.687 89.4736 153.856C101.834 157.809 118.813 153.856 123.783 140.606C128.082 129.146 128.015 116.528 125.41 104.687C123.867 97.7599 121.58 89.8715 117.952 83.0622Z" fill="#0369B3"/>
<path d="M94.5107 228.395H98.6925L101.219 136.072L106.581 119.932L100.929 130.554L101.779 120.173L110.813 101.774L102.114 113.274L101.365 85.7345L100.18 102.685L95.9084 100.153L99.6541 105.816L98.631 125.864L95.2767 120.525L98.1838 130.029L94.5107 228.395Z" fill="#263238"/>
<path d="M100.275 170.65L100.353 167.922C99.6876 167.922 98.7428 168.151 98.7428 169.157C98.7428 169.99 99.5422 170.426 100.275 170.65Z" fill="#808080"/>
<path d="M99.4305 139.382C99.4305 140.271 100.331 140.701 101.108 140.914L101.186 138.118C100.521 138.146 99.4305 138.303 99.4305 139.382Z" fill="#808080"/>
<path d="M98.9161 151.95C98.9161 152.9 99.9504 153.33 100.75 153.52L100.828 150.725C100.208 150.686 98.9161 150.77 98.9161 151.95Z" fill="#808080"/>
<path d="M100.465 122.347C100.683 121.464 99.6373 121.43 98.8546 121.52L98.7148 124.315C99.2963 123.969 100.23 123.275 100.465 122.347Z" fill="#808080"/>
<path d="M97.021 212.356C97.021 213.396 98.2565 213.815 99.0727 213.977L99.151 211.143C98.7038 211.093 97.021 211.014 97.021 212.356Z" fill="#808080"/>
<path d="M99.3131 112.558L99.1733 115.298C99.9293 114.881 100.511 114.206 100.811 113.397C101.018 112.558 100.101 112.486 99.3131 112.558Z" fill="#808080"/>
<path d="M100.101 104.62C100.101 105.553 101.108 105.984 101.901 106.179L101.823 103.384C101.18 103.401 100.101 103.552 100.101 104.62Z" fill="#808080"/>
<path d="M98.9833 194.097C99.4026 192.42 97.2278 192.465 95.8246 192.66L95.6345 197.742C96.6408 197.166 98.536 195.875 98.9833 194.097Z" fill="#808080"/>
<path d="M99.4305 199.447C99.4305 199.447 97.1942 199.106 97.1942 200.655C97.1942 201.773 98.5919 202.164 99.3969 202.332L99.4696 199.682L99.4305 199.447Z" fill="#808080"/>
<path d="M97.7086 178.153C97.7086 179.489 98.8267 180.283 99.9952 180.741L100.129 175.883C98.9833 176.028 97.7086 176.548 97.7086 178.153Z" fill="#808080"/>
<path d="M96.5457 173.311L96.4451 176.034C97.19 175.619 97.7613 174.95 98.0552 174.15C98.2676 173.283 97.306 173.239 96.5457 173.311Z" fill="#808080"/>
<path d="M97.608 144.894L97.5186 147.231C98.0165 146.861 98.3844 146.342 98.5696 145.75C98.7317 145.101 98.2062 144.917 97.608 144.894Z" fill="#808080"/>
<path d="M98.0551 188.78C98.3235 187.713 96.7246 187.886 95.9978 188.02L95.886 190.983C96.2214 190.815 97.7477 190.005 98.0551 188.78Z" fill="#808080"/>
<path d="M206.848 40.8811C205.038 37.3582 202.7 34.1325 199.916 31.3156C197.928 29.3026 195.51 27.7656 192.844 26.8197C190.177 25.8738 187.332 25.5435 184.519 25.8536C173.187 27.1338 170.079 41.5911 166.87 50.3739C159.183 71.3722 149.668 102.506 178.37 111.675C190.736 115.627 207.715 111.675 212.679 98.4252C216.978 86.9588 216.911 74.3464 214.312 62.5056C212.763 55.5788 210.477 47.6905 206.848 40.8811Z" fill="#0369B3"/>
<path opacity="0.18" d="M206.848 40.8811C205.038 37.3582 202.7 34.1325 199.916 31.3156C197.928 29.3026 195.51 27.7656 192.844 26.8197C190.177 25.8738 187.332 25.5435 184.519 25.8536C173.187 27.1338 170.079 41.5911 166.87 50.3739C159.183 71.3722 149.668 102.506 178.37 111.675C190.736 115.627 207.715 111.675 212.679 98.4252C216.978 86.9588 216.911 74.3464 214.312 62.5056C212.763 55.5788 210.477 47.6905 206.848 40.8811Z" fill="black"/>
<path d="M181.797 212.417H185.979L190.11 93.8967L195.471 77.7566L189.825 88.3788L190.669 78.0026L199.709 59.604L190.999 71.0926L190.261 43.5813L189.076 60.532L184.81 57.9995L188.55 63.6627L187.533 83.7106L184.15 78.3716L187.058 87.8756L181.797 212.417Z" fill="#263238"/>
<path d="M187.589 104.48C187.801 103.647 187.164 103.362 186.403 103.328L186.275 106.386C186.895 105.898 187.353 105.233 187.589 104.48Z" fill="#5C5C5C"/>
<path d="M184.441 152.123L184.301 155.796C185.09 155.293 186.185 154.404 186.476 153.252C186.767 152.101 185.475 152.039 184.441 152.123Z" fill="#5C5C5C"/>
<path d="M188.215 70.2373L188.03 73.9048C188.819 73.396 189.898 72.5183 190.183 71.3722C190.468 70.2261 189.243 70.1479 188.215 70.2373Z" fill="#5C5C5C"/>
<path d="M187.169 114.979C187.226 114.797 187.226 114.602 187.169 114.42C187.968 113.654 188.547 112.689 188.847 111.625C189.271 109.947 187.728 109.539 186.152 109.562L185.844 116.885C186.467 116.397 186.929 115.733 187.169 114.979Z" fill="#5C5C5C"/>
<path d="M190.747 61.3426L190.652 57.9883C190.265 58.0287 189.908 58.2122 189.649 58.5028C189.39 58.7935 189.25 59.1703 189.255 59.5592C189.255 60.4481 189.953 61.0016 190.747 61.3426Z" fill="#5C5C5C"/>
<path d="M186.605 86.3607C186.933 86.0364 187.204 85.6582 187.404 85.2426L187.359 86.07C188.148 85.5892 189.411 84.6556 189.719 83.4089C190.026 82.1621 188.651 82.1733 187.6 82.2907L187.533 83.6604L187.488 83.5877V83.9735C187.175 83.6045 186.459 83.5542 185.811 83.5989L186.605 86.3607Z" fill="#5C5C5C"/>
<path d="M188.517 78.0363C188.517 79.1544 189.545 79.7134 190.518 80.0265L190.613 78.8413L190.686 76.3759C189.791 76.4038 188.517 76.6777 188.517 78.0363Z" fill="#5C5C5C"/>
<path d="M183.552 175.939C184.005 175.715 186.062 174.619 186.476 172.97C186.834 171.528 184.682 171.763 183.681 171.942L183.552 175.939Z" fill="#5C5C5C"/>
<path d="M187.404 146.527C187.412 146.817 187.492 147.1 187.637 147.351C187.783 147.602 187.989 147.813 188.237 147.963L188.338 145.101C188.051 145.209 187.807 145.406 187.639 145.662C187.471 145.918 187.389 146.221 187.404 146.527Z" fill="#5C5C5C"/>
<path d="M189.26 118.842C188.606 118.78 186.431 118.708 186.431 120.486C186.431 121.419 187.169 121.978 187.991 122.314C187.747 122.595 187.619 122.959 187.633 123.331C187.633 124.203 188.282 124.751 189.042 125.092L189.26 118.842Z" fill="#5C5C5C"/>
<path d="M188.332 106.397C188.357 106.779 188.494 107.145 188.726 107.449C188.957 107.753 189.274 107.983 189.635 108.108L189.752 104.821C189.361 104.857 188.997 105.04 188.734 105.332C188.471 105.624 188.328 106.004 188.332 106.397Z" fill="#5C5C5C"/>
<path d="M189.847 88.39L189.942 87.1713C188.533 87.4452 187.147 88.2055 187.147 90.1566C187.147 91.9624 188.628 93.0246 190.227 93.6508L190.401 87.3893L189.847 88.39Z" fill="#5C5C5C"/>
<path d="M186.012 158.647C186.033 159.23 186.205 159.798 186.512 160.294C186.819 160.79 187.249 161.197 187.762 161.476L187.958 155.885C187.371 156.062 186.861 156.43 186.508 156.931C186.156 157.431 185.981 158.036 186.012 158.647Z" fill="#5C5C5C"/>
<path d="M187.058 181.669L187.169 178.516C186.292 177.957 184.67 178.058 183.468 178.225L183.211 185.023C184.733 184.215 186.049 183.067 187.058 181.669Z" fill="#5C5C5C"/>
<path d="M186.297 203.221C185.947 203.29 185.632 203.481 185.41 203.761C185.188 204.041 185.072 204.39 185.084 204.747C185.101 205.093 185.215 205.428 185.412 205.712C185.61 205.997 185.884 206.221 186.202 206.357L186.297 203.221Z" fill="#5C5C5C"/>
<path d="M185.313 188.976C185.313 189.854 185.973 190.402 186.739 190.743L186.856 187.388C186.09 187.511 185.313 187.914 185.313 188.976Z" fill="#5C5C5C"/>
<path d="M56.2766 99.1184C56.2766 99.1184 47.3037 101.606 42.5182 112.29C37.7326 122.973 45.4532 131.371 41.7243 142.009C37.9954 152.648 27.4236 158.004 36.8717 166.317C46.3198 174.631 58.3116 161.543 64.6514 162.661C70.9911 163.779 71.4887 175.279 88.7301 170.331C105.972 165.384 100.47 150.613 93.8623 143.916C87.2542 137.218 92.3863 126.171 87.8971 111.351C84.4477 99.9793 68.6431 94.3831 56.2766 99.1184Z" fill="#0369B3"/>
<path opacity="0.5" d="M56.2766 99.1184C56.2766 99.1184 47.3037 101.606 42.5182 112.29C37.7326 122.973 45.4532 131.371 41.7243 142.009C37.9954 152.648 27.4236 158.004 36.8717 166.317C46.3198 174.631 58.3116 161.543 64.6514 162.661C70.9911 163.779 71.4887 175.279 88.7301 170.331C105.972 165.384 100.47 150.613 93.8623 143.916C87.2542 137.218 92.3863 126.171 87.8971 111.351C84.4477 99.9793 68.6431 94.3831 56.2766 99.1184Z" fill="white"/>
<path d="M63.2928 235.356L66.2223 150.714L46.0458 136.581L66.4459 147.913L66.608 135.681L62.1076 128.547L67.2006 133.21L68.5871 117.087L69.6549 141.484L83.978 133.523L69.8394 145.666L69.4536 160.704L81.1324 156.349L69.258 164.204L67.4746 235.171L63.2928 235.356Z" fill="#263238"/>
<path d="M67.6759 159.201C68.233 159.501 68.8768 159.6 69.4984 159.48L69.5655 156.925C68.794 157.333 66.5577 158.641 67.6759 159.201Z" fill="#808080"/>
<path d="M64.4222 202.712L64.3495 204.814V205.267C65.0687 204.852 65.7383 204.357 66.3453 203.791C66.9603 203.159 65.6185 202.858 64.4222 202.712Z" fill="#808080"/>
<path d="M65.2103 179.852L65.1321 182.212C65.7529 181.836 66.332 181.396 66.8596 180.898C67.4466 180.311 66.3285 179.992 65.2103 179.852Z" fill="#808080"/>
<path d="M64.8191 191.319C65.5559 190.899 66.2408 190.394 66.8597 189.815C67.5026 189.172 66.1105 188.87 64.9085 188.73L64.8694 189.809L64.8191 191.319Z" fill="#808080"/>
<path d="M66.5242 141.976V143.094C67.0786 142.75 67.5957 142.349 68.0672 141.898C68.6262 141.339 67.6255 141.031 66.5521 140.869L66.5242 141.976Z" fill="#808080"/>
<path d="M66.0769 154.946C67.2332 154.283 68.3083 153.488 69.2803 152.576C70.2978 151.564 68.1231 151.083 66.2167 150.859L66.0769 154.946Z" fill="#808080"/>
<path d="M67.5249 185.689C67.8927 185.879 68.2966 185.99 68.7101 186.013L68.766 183.777C67.8436 184.358 66.6472 185.253 67.5249 185.689Z" fill="#808080"/>
<path d="M67.0665 177.163C67.6511 177.461 68.2737 177.677 68.917 177.806L69.0288 173.334C67.1168 174.625 65.3167 176.291 67.0665 177.163Z" fill="#808080"/>
<path d="M66.7087 195.316C67.2509 195.601 67.8518 195.756 68.4641 195.769L68.5424 192.638C67.2678 193.409 65.4732 194.695 66.7087 195.316Z" fill="#808080"/>
<path d="M68.2908 202.634L68.3523 200.129C67.5025 200.599 65.557 201.807 66.5913 202.327C67.1111 202.606 67.706 202.713 68.2908 202.634Z" fill="#808080"/>
<path d="M65.5962 168.811L65.5123 171.282C66.1904 170.886 66.8207 170.413 67.3908 169.873C68.0057 169.236 66.759 168.928 65.5962 168.811Z" fill="#808080"/>
<path d="M117.538 228.552C117.437 228.058 117.236 227.589 116.948 227.175C116.659 226.76 116.29 226.409 115.861 226.142C114.184 225.237 114.184 226.142 112.244 225.539C110.947 225.142 111.204 222.184 111.098 221.212C110.774 218.153 109.08 215.509 105.955 214.715C104.397 214.295 102.757 214.279 101.191 214.671C99.6259 215.062 98.1864 215.847 97.0097 216.952C93.2417 220.569 93.6945 223.733 91.285 223.878C88.8754 224.024 87.5169 221.016 83.296 222.827C80.7075 223.945 79.3826 226.634 78.7173 228.552H117.538Z" fill="#0369B3"/>
<path opacity="0.5" d="M117.538 228.552C117.437 228.058 117.236 227.589 116.948 227.175C116.659 226.76 116.29 226.409 115.861 226.142C114.184 225.237 114.184 226.142 112.244 225.539C110.947 225.142 111.204 222.184 111.098 221.212C110.774 218.153 109.08 215.509 105.955 214.715C104.397 214.295 102.757 214.279 101.191 214.671C99.6259 215.062 98.1864 215.847 97.0097 216.952C93.2417 220.569 93.6945 223.733 91.285 223.878C88.8754 224.024 87.5169 221.016 83.296 222.827C80.7075 223.945 79.3826 226.634 78.7173 228.552H117.538Z" fill="white"/>
<path d="M87.3269 228.496L85.4932 226.83" stroke="#263238" stroke-linecap="round" stroke-linejoin="round"/>
<path d="M98.5024 228.58L103.428 218.573" stroke="#263238" stroke-linecap="round" stroke-linejoin="round"/>
<path d="M100.923 219.322L101.505 222.576L105.429 220.407" stroke="#263238" stroke-linecap="round" stroke-linejoin="round"/>
<path d="M97.7533 222.659L99.7547 226.327L103.674 225.075" stroke="#263238" stroke-linecap="round" stroke-linejoin="round"/>
<path d="M86.1249 235.68C85.7056 234.036 84.716 231.593 82.4071 230.335C78.7285 228.328 78.7285 230.335 74.3846 228.999C71.5054 228.11 72.0757 221.625 71.8409 219.406C71.1197 212.613 67.3684 206.743 60.4249 204.993C53.4031 203.215 45.8893 204.881 40.623 209.947C32.2706 217.969 33.2713 224.985 27.9211 225.321C22.5709 225.656 19.5967 218.97 10.2213 222.978C4.50207 225.444 1.5111 231.426 0.0687256 235.68H86.1249Z" fill="#0369B3"/>
<path d="M19.1271 235.557L15.0571 231.862" stroke="#263238" stroke-linecap="round" stroke-linejoin="round"/>
<path d="M43.9158 235.747L54.8342 213.541" stroke="#263238" stroke-linecap="round" stroke-linejoin="round"/>
<path d="M72.4111 235.188L75.922 232.969" stroke="#263238" stroke-linecap="round" stroke-linejoin="round"/>
<path d="M49.2828 215.207L50.5799 222.425L59.2732 217.611" stroke="#263238" stroke-linecap="round" stroke-linejoin="round"/>
<path d="M42.2498 222.609L46.6943 230.749L55.3877 227.976" stroke="#263238" stroke-linecap="round" stroke-linejoin="round"/>
<path d="M18.9427 230.934L18.1991 235.004L14.1292 234.266" stroke="#263238" stroke-linecap="round" stroke-linejoin="round"/>
<path d="M73.5181 234.265L72.9646 232.23" stroke="#263238" stroke-linecap="round" stroke-linejoin="round"/>
<path d="M49.2548 215.548C49.5852 215.548 49.853 215.28 49.853 214.95C49.853 214.62 49.5852 214.352 49.2548 214.352C48.9244 214.352 48.6566 214.62 48.6566 214.95C48.6566 215.28 48.9244 215.548 49.2548 215.548Z" fill="#263238"/>
<path d="M55.4268 213.536C55.4346 213.655 55.4065 213.774 55.3462 213.877C55.2859 213.98 55.1961 214.062 55.0884 214.114C54.9807 214.166 54.86 214.184 54.7418 214.166C54.6237 214.149 54.5135 214.096 54.4255 214.015C54.3375 213.935 54.2756 213.829 54.248 213.713C54.2203 213.597 54.228 213.475 54.2702 213.363C54.3124 213.252 54.387 213.155 54.4845 213.086C54.5821 213.017 54.698 212.979 54.8174 212.977C54.9718 212.972 55.1219 213.028 55.2357 213.132C55.3496 213.237 55.4181 213.381 55.4268 213.536Z" fill="#263238"/>
<path d="M59.8099 217.952C60.1402 217.952 60.4081 217.684 60.4081 217.354C60.4081 217.024 60.1402 216.756 59.8099 216.756C59.4795 216.756 59.2117 217.024 59.2117 217.354C59.2117 217.684 59.4795 217.952 59.8099 217.952Z" fill="#263238"/>
<path d="M56.3101 227.87C56.3112 227.989 56.277 228.105 56.2117 228.204C56.1464 228.304 56.053 228.381 55.9435 228.427C55.8339 228.473 55.7132 228.485 55.5966 228.463C55.4801 228.44 55.373 228.383 55.289 228.299C55.205 228.215 55.1479 228.107 55.125 227.991C55.1021 227.874 55.1144 227.754 55.1604 227.644C55.2063 227.535 55.2839 227.441 55.3831 227.376C55.4823 227.311 55.5987 227.276 55.7175 227.277C55.8742 227.279 56.0241 227.342 56.1349 227.453C56.2458 227.563 56.3087 227.713 56.3101 227.87Z" fill="#263238"/>
<path d="M42.1939 223.101C42.5243 223.101 42.7921 222.833 42.7921 222.503C42.7921 222.173 42.5243 221.905 42.1939 221.905C41.8635 221.905 41.5957 222.173 41.5957 222.503C41.5957 222.833 41.8635 223.101 42.1939 223.101Z" fill="#263238"/>
<path d="M72.9645 232.829C73.2949 232.829 73.5627 232.561 73.5627 232.231C73.5627 231.9 73.2949 231.632 72.9645 231.632C72.6342 231.632 72.3663 231.9 72.3663 232.231C72.3663 232.561 72.6342 232.829 72.9645 232.829Z" fill="#263238"/>
<path d="M76.4923 232.84C76.4934 232.958 76.4592 233.075 76.3942 233.174C76.3291 233.273 76.2361 233.35 76.1269 233.397C76.0177 233.443 75.8972 233.455 75.7808 233.433C75.6644 233.41 75.5573 233.354 75.4731 233.27C75.3889 233.187 75.3313 233.08 75.3078 232.964C75.2843 232.848 75.2958 232.728 75.3409 232.618C75.386 232.508 75.4627 232.415 75.5612 232.349C75.6596 232.283 75.7755 232.247 75.8941 232.247C76.0518 232.247 76.2031 232.31 76.3151 232.421C76.4271 232.532 76.4908 232.682 76.4923 232.84Z" fill="#263238"/>
<path d="M18.9426 231.532C19.2729 231.532 19.5407 231.264 19.5407 230.934C19.5407 230.603 19.2729 230.335 18.9426 230.335C18.6122 230.335 18.3444 230.603 18.3444 230.934C18.3444 231.264 18.6122 231.532 18.9426 231.532Z" fill="#263238"/>
<path d="M15.4597 231.549C15.4597 231.667 15.4246 231.783 15.3589 231.881C15.2932 231.979 15.1997 232.056 15.0904 232.101C14.9811 232.147 14.8608 232.158 14.7448 232.135C14.6288 232.112 14.5222 232.055 14.4385 231.972C14.3549 231.888 14.2979 231.781 14.2748 231.665C14.2517 231.549 14.2636 231.429 14.3088 231.32C14.3541 231.21 14.4308 231.117 14.5292 231.051C14.6275 230.986 14.7432 230.95 14.8615 230.95C15.0202 230.95 15.1723 231.013 15.2845 231.126C15.3967 231.238 15.4597 231.39 15.4597 231.549Z" fill="#263238"/>
<path d="M13.8664 234.83C14.1968 234.83 14.4646 234.562 14.4646 234.232C14.4646 233.902 14.1968 233.634 13.8664 233.634C13.536 233.634 13.2682 233.902 13.2682 234.232C13.2682 234.562 13.536 234.83 13.8664 234.83Z" fill="#263238"/>
<path d="M137.866 212.037C137.866 212.037 111.59 213.564 114.251 215.084C116.912 216.605 138.246 218.511 134.819 222.352C131.392 226.193 89.1102 236.44 89.1102 236.44" stroke="#263238" stroke-linecap="round" stroke-linejoin="round"/>
<path d="M152.34 212.037C152.34 212.037 142.433 213.564 143.954 214.704C145.475 215.845 214.396 217.371 210.225 237.178" stroke="#263238" stroke-linecap="round" stroke-linejoin="round"/>
<path d="M198.787 167.05C198.787 167.05 189.724 168.006 176.855 155.611C163.985 143.217 189.249 99.3533 199.262 89.8213C209.275 80.2893 229.803 141.305 222.144 152.749C214.485 164.193 206.412 166.575 198.787 167.05Z" fill="#0369B3"/>
<path d="M194.968 217.108L196.399 153.224L190.205 146.555L196.88 150.367V138.924L188.299 128.911L196.399 135.111L195.449 127.004L197.831 130.817L199.262 107.935L200.212 142.736L215.95 134.155L200.212 147.505V153.705V219.014" fill="#263238"/>
<path d="M198.462 189.496C198.865 188.49 196.299 188.378 195.617 188.339L195.55 191.391C196.444 191.034 198.127 190.318 198.462 189.496Z" fill="#808080"/>
<path d="M200.212 163.684C198.91 164.009 196.243 164.802 197.02 165.563C197.635 166.172 199.122 166.418 200.212 166.513V163.684Z" fill="#808080"/>
<path d="M198.652 172.288C199.061 171.271 196.003 171.271 196.003 171.271V171.321L195.941 174.005C196.662 173.747 198.334 173.082 198.652 172.288Z" fill="#808080"/>
<path d="M198.451 159.044C198.753 158.284 197.137 158.088 196.293 158.038L196.237 160.57C197.048 160.24 198.194 159.681 198.451 159.044Z" fill="#808080"/>
<path d="M195.449 203.394L195.248 204.809L195.209 206.564C195.907 206.329 198.077 205.524 198.462 204.552C198.926 203.394 195.449 203.394 195.449 203.394Z" fill="#808080"/>
<path d="M196.606 181.82C197.3 182.513 198.971 182.787 200.212 182.905V179.69C198.72 180.065 195.729 180.942 196.606 181.82Z" fill="#808080"/>
<path d="M196.819 152.319C197.467 152.967 199.111 153.202 200.212 153.286V150.39C199.01 150.675 195.997 151.48 196.819 152.319Z" fill="#808080"/>
<path d="M199.977 134.149C198.641 134.54 197.003 135.167 197.635 135.826C198.11 136.301 199.111 136.553 200.05 136.693L199.977 134.149Z" fill="#808080"/>
<path d="M200.212 194.768C198.72 195.143 195.74 196.02 196.606 196.898C197.3 197.591 198.971 197.871 200.212 197.983V194.768Z" fill="#808080"/>
<path d="M196.88 141.523V144.134C197.691 143.821 198.988 143.223 199.262 142.535C199.614 141.702 197.607 141.551 196.88 141.523Z" fill="#808080"/>
<path d="M229.803 217.807C230.217 214.033 227.148 209.98 223.262 209.784C219.774 209.617 215.939 211.959 213.031 210.025C210.655 208.443 210.605 205.066 210.337 202.198C210.068 199.33 209.286 196.49 207.43 194.371C205.574 192.252 202.454 191.017 199.793 191.99C194.432 193.963 194.102 202.757 188.612 204.378C184.821 205.496 180.869 202.349 176.978 203.048C172.214 203.897 170.062 209.169 166.406 211.747C166.026 212.015 164.438 213.167 162.615 214.497C161.089 215.615 159.401 216.851 158.143 217.807H229.803Z" fill="#0369B3"/>
<path opacity="0.5" d="M229.803 217.807C230.217 214.033 227.148 209.98 223.262 209.784C219.774 209.617 215.939 211.959 213.031 210.025C210.655 208.443 210.605 205.066 210.337 202.198C210.068 199.33 209.286 196.49 207.43 194.371C205.574 192.252 202.454 191.017 199.793 191.99C194.432 193.963 194.102 202.757 188.612 204.378C184.821 205.496 180.869 202.349 176.978 203.048C172.214 203.897 170.062 209.169 166.406 211.747C166.026 212.015 164.438 213.167 162.615 214.497C161.089 215.615 159.401 216.851 158.143 217.807H229.803Z" fill="white"/>
<path d="M185.341 217.494L182.333 208.705" stroke="#263238" stroke-linecap="round" stroke-linejoin="round"/>
<path d="M195.98 217.729L202.225 200.845" stroke="#263238" stroke-linecap="round" stroke-linejoin="round"/>
<path d="M218.644 217.729L222.345 214.257" stroke="#263238" stroke-linecap="round" stroke-linejoin="round"/>
<path d="M184.514 215.414L186.498 210.097" stroke="#263238" stroke-linecap="round" stroke-linejoin="round"/>
<path d="M184.128 214.117L177.246 212.406" stroke="#263238" stroke-linecap="round" stroke-linejoin="round"/>
<path d="M200.374 205.932L198.524 202.925" stroke="#263238" stroke-linecap="round" stroke-linejoin="round"/>
<path d="M198.524 210.556L205.227 206.86" stroke="#263238" stroke-linecap="round" stroke-linejoin="round"/>
<path d="M196.522 216.426L202.683 214.257" stroke="#263238" stroke-linecap="round" stroke-linejoin="round"/>
<path d="M197.367 214.028L193.436 207.09" stroke="#263238" stroke-linecap="round" stroke-linejoin="round"/>
<path d="M202.817 200.845C202.817 200.964 202.782 201.079 202.716 201.178C202.65 201.276 202.557 201.353 202.447 201.398C202.337 201.443 202.217 201.455 202.101 201.431C201.984 201.408 201.878 201.35 201.794 201.266C201.711 201.182 201.654 201.075 201.632 200.958C201.609 200.842 201.622 200.721 201.668 200.612C201.714 200.503 201.792 200.41 201.891 200.345C201.99 200.28 202.106 200.246 202.225 200.247C202.303 200.247 202.381 200.262 202.453 200.292C202.525 200.323 202.591 200.367 202.646 200.422C202.701 200.478 202.745 200.544 202.774 200.617C202.803 200.689 202.818 200.767 202.817 200.845Z" fill="#263238"/>
<path d="M199.055 202.874C199.055 202.993 199.02 203.108 198.954 203.207C198.888 203.305 198.795 203.382 198.686 203.427C198.576 203.472 198.456 203.484 198.34 203.461C198.224 203.438 198.118 203.381 198.034 203.297C197.95 203.214 197.893 203.107 197.87 202.991C197.847 202.875 197.859 202.755 197.904 202.645C197.949 202.536 198.026 202.443 198.125 202.377C198.223 202.311 198.339 202.276 198.457 202.276C198.536 202.275 198.614 202.29 198.687 202.32C198.76 202.35 198.826 202.394 198.881 202.45C198.937 202.505 198.981 202.572 199.011 202.645C199.041 202.717 199.056 202.796 199.055 202.874Z" fill="#263238"/>
<path d="M205.227 207.459C205.557 207.459 205.825 207.191 205.825 206.86C205.825 206.53 205.557 206.262 205.227 206.262C204.897 206.262 204.629 206.53 204.629 206.86C204.629 207.191 204.897 207.459 205.227 207.459Z" fill="#263238"/>
<path d="M193.436 207.688C193.767 207.688 194.035 207.42 194.035 207.09C194.035 206.759 193.767 206.491 193.436 206.491C193.106 206.491 192.838 206.759 192.838 207.09C192.838 207.42 193.106 207.688 193.436 207.688Z" fill="#263238"/>
<path d="M202.996 214.765C203.327 214.765 203.595 214.498 203.595 214.167C203.595 213.837 203.327 213.569 202.996 213.569C202.666 213.569 202.398 213.837 202.398 214.167C202.398 214.498 202.666 214.765 202.996 214.765Z" fill="#263238"/>
<path d="M222.111 215C222.441 215 222.709 214.733 222.709 214.402C222.709 214.072 222.441 213.804 222.111 213.804C221.78 213.804 221.512 214.072 221.512 214.402C221.512 214.733 221.78 215 222.111 215Z" fill="#263238"/>
<path d="M182.932 208.705C182.933 208.824 182.899 208.94 182.834 209.039C182.769 209.138 182.676 209.216 182.566 209.262C182.457 209.308 182.337 209.321 182.22 209.298C182.104 209.276 181.997 209.219 181.913 209.136C181.828 209.053 181.771 208.946 181.747 208.83C181.724 208.714 181.735 208.593 181.78 208.483C181.825 208.374 181.902 208.28 182.001 208.214C182.099 208.148 182.215 208.113 182.334 208.113C182.491 208.113 182.643 208.175 182.755 208.286C182.867 208.397 182.93 208.548 182.932 208.705Z" fill="#263238"/>
<path d="M186.392 210.713C186.723 210.713 186.99 210.445 186.99 210.114C186.99 209.784 186.723 209.516 186.392 209.516C186.062 209.516 185.794 209.784 185.794 210.114C185.794 210.445 186.062 210.713 186.392 210.713Z" fill="#263238"/>
<path d="M177.246 213.004C177.576 213.004 177.844 212.737 177.844 212.406C177.844 212.076 177.576 211.808 177.246 211.808C176.916 211.808 176.648 212.076 176.648 212.406C176.648 212.737 176.916 213.004 177.246 213.004Z" fill="#263238"/>
<path d="M247 226.137C246.877 225.534 246.633 224.962 246.283 224.456C245.932 223.951 245.481 223.522 244.959 223.196C242.936 222.078 242.936 223.196 240.548 222.464C238.966 221.977 239.279 218.411 239.151 217.186C238.754 213.457 236.685 210.232 232.872 209.264C230.975 208.753 228.978 208.734 227.071 209.211C225.164 209.687 223.41 210.643 221.976 211.987C217.381 216.398 217.934 220.256 214.994 220.44C212.053 220.625 210.398 216.952 205.255 219.154C202.096 220.507 200.464 223.794 199.664 226.137H247Z" fill="#0369B3"/>
<path d="M210.158 226.07L207.922 224.035" stroke="#263238" stroke-linecap="round" stroke-linejoin="round"/>
<path d="M223.788 226.17L229.792 213.966" stroke="#263238" stroke-linecap="round" stroke-linejoin="round"/>
<path d="M226.74 214.883L227.45 218.847L232.23 216.202" stroke="#263238" stroke-linecap="round" stroke-linejoin="round"/>
<path d="M222.877 218.953L225.314 223.425L230.094 221.899" stroke="#263238" stroke-linecap="round" stroke-linejoin="round"/>
</svg>
